<?xml version="1.0" standalone="no"?>
<!DOCTYPE svg PUBLIC "-//W3C//DTD SVG 20010904//EN"
 "http://www.w3.org/TR/2001/REC-SVG-20010904/DTD/svg10.dtd">
<svg version="1.0" xmlns="http://www.w3.org/2000/svg"
 width="300.000000pt" height="300.000000pt" viewBox="0 0 300.000000 300.000000"
 preserveAspectRatio="xMidYMid meet">
<metadata>
Created by potrace 1.10, written by Peter Selinger 2001-2011
</metadata>
<g transform="translate(0.000000,300.000000) scale(0.100000,-0.100000)"
fill="#000000" stroke="none">
<path d="M1356 2420 c-1 -3 0 -44 2 -92 l3 -87 37 3 c33 3 37 6 34 30 -3 24
-1 26 37 26 34 0 43 -4 53 -25 9 -19 19 -25 45 -25 36 0 42 13 18 47 -13 18
-13 22 0 33 19 16 19 54 0 74 -8 8 -34 18 -58 21 -45 7 -168 3 -171 -5z m170
-51 c10 -16 -15 -29 -58 -29 -31 0 -38 4 -38 20 0 17 7 20 44 20 25 0 48 -5
52 -11z"/>
<path d="M1655 2377 c-36 -31 -38 -86 -5 -122 28 -30 117 -59 154 -49 64 16
88 105 40 149 -52 48 -147 59 -189 22z m127 -44 c34 -31 16 -73 -32 -73 -31 0
-50 17 -50 45 0 43 47 60 82 28z"/>
<path d="M1072 2333 c-19 -8 -32 -19 -29 -26 40 -101 63 -147 72 -147 18 0
179 68 182 77 2 4 -1 14 -6 22 -8 12 -19 10 -71 -12 l-61 -27 -15 38 c-36 92
-35 91 -72 75z"/>
<path d="M1909 2268 c-17 -29 -38 -62 -46 -74 -13 -20 -9 -24 71 -73 60 -37
105 -75 159 -135 69 -77 76 -83 91 -68 15 15 12 20 -30 63 l-46 47 42 38 c23
22 48 42 54 46 7 5 2 17 -16 35 l-27 27 -28 -24 c-16 -14 -45 -40 -65 -59 -21
-19 -38 -31 -38 -25 0 5 5 15 11 21 8 8 0 18 -31 38 -23 14 -48 29 -56 32 -20
7 -18 19 14 66 45 66 45 65 13 82 -17 8 -32 15 -35 15 -2 0 -19 -24 -37 -52z"/>
<path d="M853 2191 c-13 -11 -23 -22 -23 -25 0 -8 100 -136 106 -136 3 0 41
28 84 62 63 48 78 64 69 75 -16 19 -21 17 -70 -22 -24 -19 -47 -35 -51 -35 -3
0 -23 23 -43 50 -20 28 -40 50 -43 50 -4 -1 -17 -9 -29 -19z"/>
<path d="M1342 2125 c-90 -25 -202 -83 -273 -140 -238 -192 -316 -529 -186
-807 83 -178 223 -301 417 -368 82 -28 252 -38 331 -20 331 77 549 343 549
673 0 286 -177 537 -450 638 -75 28 -100 32 -210 35 -90 3 -140 0 -178 -11z
m127 1 c-3 -3 -21 -16 -42 -30 -31 -22 -44 -24 -88 -19 -61 7 -49 18 44 38 66
14 93 18 86 11z m137 -21 c57 -17 64 -18 44 -5 -9 6 -10 10 -3 10 19 0 43 -12
43 -22 0 -5 -4 -7 -8 -4 -12 7 -99 -17 -140 -38 -26 -13 -40 -15 -70 -6 -60
16 -69 25 -41 43 69 43 96 46 175 22z m142 -41 c12 -8 26 -12 32 -9 10 6 85
-29 95 -45 11 -17 -11 -11 -49 15 -39 27 -64 34 -32 10 11 -8 17 -18 13 -21
-5 -5 -97 54 -97 63 0 7 17 2 38 -13z m-388 -3 c19 -6 11 -9 -38 -14 -34 -4
-75 -9 -90 -13 l-27 -5 24 20 c24 22 80 27 131 12z m369 -18 l38 -27 -35 -24
-35 -23 -51 20 c-28 12 -67 23 -86 26 -38 6 -36 5 60 -33 36 -13 66 -26 68
-27 1 -1 -3 -16 -9 -33 l-11 -32 -51 46 c-28 25 -64 52 -81 61 l-30 15 30 16
c38 20 103 40 132 41 13 1 41 -11 61 -26z m-533 -2 c-10 -11 -31 -25 -47 -31
-16 -7 -26 -17 -23 -22 4 -5 -5 -22 -19 -36 -13 -15 -30 -38 -37 -50 -18 -36
-23 -19 -7 21 8 19 24 41 36 49 11 8 18 18 15 21 -5 5 82 67 95 67 2 0 -4 -9
-13 -19z m159 -28 c-3 -10 -13 -42 -20 -71 -15 -55 -48 -107 -77 -117 -9 -3
-44 3 -77 15 -33 11 -74 20 -91 20 l-31 0 42 60 c23 33 48 65 56 72 21 17 102
37 157 37 42 1 47 -1 41 -16z m112 9 c7 -5 -13 -26 -59 -60 -67 -50 -70 -51
-63 -25 3 15 13 42 20 60 12 29 18 33 52 33 21 0 43 -4 50 -8z m170 -124 c18
-18 29 -38 25 -43 -4 -6 -73 -10 -169 -10 -146 0 -163 2 -163 17 0 15 67 77
135 125 l29 21 56 -38 c30 -21 69 -53 87 -72z m197 52 c25 -27 46 -53 46 -59
0 -24 -35 -17 -86 19 -31 21 -61 41 -67 44 -14 6 28 46 48 46 7 0 33 -22 59
-50z m50 1 c32 -33 44 -51 36 -56 -6 -4 -15 -3 -19 1 -4 5 -27 30 -51 57 -57
63 -28 61 34 -2z m23 16 c10 -13 23 -22 29 -20 6 2 19 -6 29 -17 16 -18 17
-20 1 -20 -9 0 -19 7 -22 15 -4 8 -9 13 -14 10 -4 -2 -20 9 -35 25 -16 17 -24
30 -18 30 7 0 20 -10 30 -23z m-864 -68 c-13 -36 -24 -48 -56 -62 -22 -9 -42
-15 -44 -13 -2 2 22 31 53 65 31 34 58 60 60 58 2 -1 -4 -23 -13 -48z m735 4
c28 -19 52 -36 52 -38 0 -3 -17 -13 -37 -24 -42 -21 -66 -16 -96 17 -17 18
-17 25 -7 56 7 23 16 34 23 29 7 -4 36 -22 65 -40z m231 -21 c18 -14 20 -22
13 -41 l-9 -24 -26 35 c-15 19 -27 38 -27 41 0 13 28 7 49 -11z m-50 -42 c15
-71 14 -72 -18 -15 -28 51 -30 65 -6 65 8 0 18 -20 24 -50z m-33 -13 c9 -16
17 -38 19 -49 3 -16 1 -18 -13 -12 -9 4 -45 17 -79 28 -35 12 -63 24 -63 27 0
4 14 12 30 19 28 12 33 11 58 -12 53 -48 66 -51 23 -6 -37 39 -40 47 -25 50
20 4 26 -1 50 -45z m-232 1 c-3 -4 2 -8 10 -8 8 0 33 -26 56 -57 l41 -57 -43
-11 c-24 -6 -46 -9 -50 -6 -3 3 -11 22 -16 42 -9 34 -8 38 15 48 14 7 23 14
20 17 -3 3 -15 0 -27 -6 -21 -11 -22 -10 -18 19 2 17 1 31 -4 31 -5 0 -6 5 -2
11 4 8 9 7 15 -2 4 -7 5 -17 3 -21z m-519 0 c33 -9 37 -12 20 -18 -11 -4 -53
-21 -92 -38 l-73 -30 0 28 c0 16 5 41 12 55 11 24 15 26 52 20 23 -4 59 -11
81 -17z m-155 -15 c-21 -71 -35 -99 -54 -112 -12 -8 -36 -30 -53 -49 -32 -32
-33 -33 -33 -10 0 43 29 124 52 145 23 21 76 53 90 53 4 0 3 -12 -2 -27z m643
10 c4 -2 7 -15 7 -27 0 -16 -13 -32 -42 -51 -24 -15 -70 -48 -102 -72 l-59
-45 -63 64 c-49 49 -63 71 -66 98 l-3 35 70 6 c69 6 243 1 258 -8z m335 -35
c-3 -21 -2 -25 8 -17 8 7 14 6 19 -2 4 -6 1 -15 -6 -20 -11 -7 -11 -9 2 -9 20
0 38 -20 42 -47 2 -12 8 -28 15 -36 10 -11 9 -17 -2 -26 -12 -10 -18 -7 -30
18 -9 16 -21 33 -27 36 -6 4 -1 -11 10 -33 14 -27 17 -43 10 -47 -13 -9 -13
-9 -27 39 -6 23 -8 46 -3 55 6 9 3 24 -9 40 -10 14 -20 43 -23 64 -5 34 -4 37
9 26 10 -8 14 -24 12 -41z m77 6 c15 -25 25 -47 23 -49 -9 -10 -48 9 -62 30
-14 22 -12 65 4 65 5 0 20 -21 35 -46z m-755 0 c0 -25 -6 -25 -37 -1 -17 12
-7 27 18 27 14 0 19 -7 19 -26z m564 -23 c38 -14 71 -31 73 -37 4 -12 -76
-114 -89 -114 -4 0 -8 5 -8 11 0 6 -9 24 -20 40 l-21 28 28 7 c73 16 105 26
100 30 -2 3 -33 -2 -68 -10 -35 -8 -64 -14 -64 -13 0 1 -15 21 -33 44 -17 23
-32 45 -32 48 0 10 58 -5 134 -34z m-644 26 c0 -2 -25 -41 -55 -87 -30 -45
-65 -109 -77 -141 -33 -85 -43 -79 -64 35 -13 64 -18 126 -11 126 1 0 40 16
87 35 75 30 120 42 120 32z m54 -29 c29 -19 36 -32 46 -80 6 -32 18 -74 26
-93 l14 -36 -47 -20 c-27 -11 -76 -34 -110 -51 l-61 -30 -31 23 c-17 12 -31
27 -31 31 0 24 144 277 158 278 1 0 18 -10 36 -22z m391 -54 c3 -20 5 -37 3
-38 -6 -3 -193 -67 -203 -69 -5 -1 -13 -6 -16 -10 -3 -4 -17 -9 -30 -9 -13 -1
-30 -6 -36 -11 -9 -6 -16 -1 -23 18 -15 39 -33 115 -29 120 5 4 44 -30 78 -68
20 -22 22 -29 11 -42 -7 -8 -11 -15 -8 -15 2 0 53 36 113 80 61 44 115 80 121
80 7 0 15 -16 19 -36z m430 5 c8 -13 -2 -59 -13 -59 -5 0 -16 16 -25 35 -17
35 -17 35 8 35 13 0 27 -5 30 -11z m-1092 -76 c4 -38 9 -79 13 -92 7 -22 5
-23 -27 -16 -19 4 -35 8 -35 9 -2 1 15 115 21 144 10 42 22 22 28 -45z m937
-20 c-17 -112 -37 -131 -64 -62 l-16 40 42 54 c23 30 44 52 46 50 3 -3 -1 -39
-8 -82z m-131 -49 c-22 -23 -36 -31 -44 -24 -19 16 -67 111 -60 118 4 4 23 12
43 18 37 10 37 10 65 -34 l29 -44 -33 -34z m173 44 c2 -32 -1 -43 -19 -55 -21
-14 -21 -14 -12 24 5 21 9 56 9 78 1 35 2 37 11 17 5 -13 10 -41 11 -64z
m-1036 -8 c-8 -47 -17 -75 -27 -78 -8 -3 -22 -11 -32 -20 -22 -19 -25 -16 -28
36 -3 39 0 47 45 92 27 28 50 49 52 47 2 -1 -3 -36 -10 -77z m1173 5 c-1 -16
6 -50 14 -75 19 -50 24 -136 7 -110 -5 8 -10 34 -10 57 0 23 -5 43 -11 45 -6
2 -12 21 -13 43 -1 22 -5 46 -10 53 -4 7 -5 20 -1 30 5 14 7 14 15 2 6 -8 9
-28 9 -45z m-429 32 c0 -7 16 -37 36 -67 l36 -55 -77 -72 c-43 -40 -82 -73
-86 -73 -4 0 -12 15 -18 33 -6 19 -32 64 -56 102 -25 37 -45 71 -45 75 0 8
167 68 193 69 9 1 17 -5 17 -12z m390 -33 c0 -8 4 -12 10 -9 5 3 7 0 4 -8 -3
-8 1 -37 9 -64 8 -28 11 -56 7 -63 -5 -8 -10 -2 -15 21 -4 18 -16 53 -26 77
-18 42 -18 62 2 62 5 0 9 -7 9 -16z m-11 -87 c11 -32 21 -66 21 -77 0 -19 -35
-50 -56 -50 -15 0 -24 169 -11 188 13 17 21 8 46 -61z m-527 -73 l47 -85 -42
-18 c-42 -19 -42 -19 -59 3 -24 30 -99 161 -105 184 -3 14 4 22 34 34 37 15
39 15 58 -9 11 -13 41 -62 67 -109z m338 65 c0 -4 -12 -14 -26 -24 -25 -16
-27 -16 -50 6 l-24 23 32 33 32 33 18 -32 c9 -18 17 -36 18 -39z m129 -77 c1
-56 0 -57 -65 -37 -38 11 -20 120 23 147 l28 17 7 -37 c4 -20 7 -61 7 -90z
m-1160 71 c-1 -43 -2 -45 -9 -18 -11 44 -11 65 0 65 6 0 9 -21 9 -47z m545
-29 c15 -32 42 -79 61 -105 l35 -49 -33 -13 c-59 -25 -168 -59 -173 -54 -2 2
-22 33 -44 68 l-40 64 78 72 c42 40 80 73 84 73 3 0 18 -25 32 -56z m-382 36
c21 0 32 -45 23 -94 -5 -25 -17 -41 -39 -55 l-31 -20 -7 52 c-3 29 -6 69 -7
91 -1 35 1 38 22 32 12 -3 30 -6 39 -6z m298 -3 c-8 -8 -39 -36 -68 -62 l-53
-49 -20 21 -20 20 83 41 c92 45 99 48 78 29z m-367 -84 c3 -62 1 -92 -8 -101
-10 -11 -17 0 -39 58 -32 87 -32 93 -3 113 40 28 44 22 50 -70z m-115 -15 l-4
-33 -8 37 c-5 21 -5 50 0 65 l8 28 4 -32 c2 -18 2 -48 0 -65z m965 74 c15 -17
12 -20 -71 -61 l-87 -43 65 61 c36 33 68 60 71 61 3 0 13 -8 22 -18z m103 -47
c-5 -14 -8 -14 -31 1 -31 20 -31 28 -2 41 18 9 24 7 31 -8 5 -10 6 -25 2 -34z
m-779 8 c2 -5 -8 -15 -21 -21 -19 -8 -26 -8 -29 1 -2 6 -6 1 -9 -11 -4 -12 -3
-22 1 -22 5 0 16 -18 26 -39 l17 -39 -43 -58 c-25 -32 -45 -51 -47 -43 -1 8 4
48 13 89 8 41 17 82 18 90 5 25 20 75 24 83 5 9 45 -14 50 -30z m-214 -133 c1
-8 -2 -16 -8 -18 -12 -4 -44 92 -44 133 0 24 5 17 25 -35 14 -36 26 -72 27
-80z m951 117 l34 -22 -39 -79 c-39 -79 -117 -206 -127 -206 -16 0 -72 54 -72
69 0 10 -11 51 -24 91 l-23 72 56 24 c31 14 76 35 101 48 57 30 55 30 94 3z
m275 -47 c0 -29 -2 -31 -9 -15 -5 11 -9 34 -9 50 -1 23 2 26 9 15 5 -8 9 -31
9 -50z m-981 -27 c-17 -18 -33 -31 -34 -30 -2 2 -10 20 -19 40 -15 36 -15 37
12 51 26 13 30 13 51 -7 l22 -21 -32 -33z m939 -54 c-12 -17 -37 -42 -56 -56
-29 -23 -33 -24 -27 -7 4 10 10 47 13 81 5 49 10 63 22 63 9 0 25 7 36 16 19
14 20 13 27 -26 6 -34 3 -47 -15 -71z m-151 19 c7 -34 13 -79 14 -99 0 -36 -1
-37 -76 -68 -77 -33 -134 -48 -134 -37 0 3 15 26 33 50 19 24 55 87 82 140 30
62 51 94 58 87 5 -5 15 -38 23 -73z m-1076 9 c6 -17 6 -25 0 -22 -15 9 -12 -7
5 -25 13 -15 14 -19 1 -29 -12 -10 -15 -7 -21 18 -3 17 -4 35 0 41 3 5 2 18
-3 27 -5 10 -7 25 -4 33 5 13 6 13 9 0 3 -8 9 -28 13 -43z m1147 39 c1 -1 -3
-37 -10 -81 -15 -100 -32 -108 -40 -18 -3 37 -9 78 -13 90 -6 21 -4 23 27 17
19 -4 35 -8 36 -8z m-774 -58 l37 -63 -27 -12 c-51 -22 -69 -16 -96 30 l-26
42 32 33 c17 17 34 32 37 32 4 0 23 -28 43 -62z m-223 7 c-5 -22 -10 -56 -11
-75 -1 -31 -3 -28 -16 24 -16 59 -16 60 7 78 13 10 24 17 26 15 2 -1 -1 -20
-6 -42z m604 -37 c10 -35 20 -72 23 -83 3 -13 -15 0 -51 35 -31 30 -54 60 -51
67 7 21 -3 16 -63 -30 -100 -76 -154 -109 -162 -101 -4 5 -11 23 -14 39 l-6
30 98 33 c53 19 103 34 110 35 6 0 12 4 12 8 0 3 9 9 20 12 11 3 18 1 14 -4
-9 -15 13 -10 26 6 20 25 27 18 44 -47z m-648 0 c10 -46 13 -78 8 -78 -12 0
-74 56 -74 67 0 27 20 21 40 -12 12 -20 24 -34 27 -32 2 3 -5 20 -16 38 -19
31 -20 49 -1 49 5 0 12 -15 16 -32z m1139 -15 c-17 -101 -41 -140 -107 -174
-44 -23 -47 -16 -20 52 10 28 39 68 72 101 30 30 56 55 58 56 2 1 0 -15 -3
-35z m-967 -13 l22 -40 -22 -5 c-73 -16 -113 -24 -116 -21 -3 4 81 106 88 106
3 0 15 -18 28 -40z m442 -34 c51 -48 61 -64 63 -95 l2 -36 -75 -7 c-41 -4
-114 -4 -162 -1 -77 5 -88 8 -89 24 -1 11 -2 23 -3 28 -1 6 38 37 86 71 48 33
90 65 93 71 10 15 17 10 85 -55z m-677 -1 c16 -33 16 -35 -2 -35 -26 0 -44 25
-36 50 9 29 19 25 38 -15z m83 -41 c9 -8 8 -15 -2 -29 -16 -22 -13 -24 -50 39
l-28 50 34 -25 c19 -13 40 -29 46 -35z m303 7 c9 -29 8 -36 -7 -47 -9 -7 -23
-14 -29 -14 -12 0 -70 77 -62 84 11 8 75 22 80 17 4 -3 11 -21 18 -40z m-90
-27 c18 -25 31 -48 27 -51 -8 -9 -196 59 -190 69 3 4 20 8 37 9 18 1 43 5 57
9 14 4 28 8 31 9 3 1 20 -20 38 -45z m-263 -11 c14 -15 22 -33 19 -41 -3 -7
-5 -21 -5 -30 -1 -15 -3 -14 -16 3 -9 11 -24 37 -35 58 -17 32 -17 37 -4 37 9
0 27 -12 41 -27z m1004 -52 c-11 -26 -13 -27 -68 -20 -31 4 -68 11 -81 16 -22
9 -20 11 30 27 29 10 70 26 89 36 l35 18 3 -25 c2 -14 -2 -37 -8 -52z m-934
-18 c-10 -10 -27 40 -20 60 7 19 9 17 16 -17 5 -21 6 -41 4 -43z m166 27 c33
0 28 -19 -8 -30 -36 -12 -37 -12 -82 34 l-46 45 59 -24 c33 -13 68 -25 77 -25z
m-140 22 c8 5 87 -70 80 -76 -14 -15 -32 -3 -53 34 -29 51 -37 45 -10 -8 19
-37 19 -52 -1 -52 -11 0 -23 33 -32 85 -4 25 -3 35 2 27 5 -8 11 -12 14 -10z
m664 1 c19 -12 22 -18 12 -24 -26 -17 -48 -10 -48 16 0 30 3 30 36 8z m-408
-31 c-29 -5 -36 8 -13 24 17 13 20 13 26 -3 4 -13 1 -19 -13 -21z m743 -19
c-31 -44 -115 -121 -106 -98 4 11 13 35 19 53 6 17 18 32 26 32 8 0 29 9 45
20 39 26 40 25 16 -7z m-1034 -15 c25 -36 22 -51 -10 -39 -15 6 -23 18 -25 40
-4 39 7 39 35 -1z m281 -1 c25 -23 27 -34 12 -72 l-10 -26 -57 37 c-80 50 -80
50 -37 72 42 21 57 20 92 -11z m503 22 c12 -6 48 -16 80 -23 l60 -12 -46 -63
c-53 -72 -83 -88 -186 -97 -69 -7 -72 -6 -64 12 4 10 15 44 24 75 28 98 77
138 132 108z m-131 -30 c0 -17 -43 -60 -113 -113 l-49 -36 -31 22 c-68 46
-137 110 -137 126 0 15 17 17 165 17 143 0 165 -2 165 -16z m274 -48 c-9 -23
-28 -50 -42 -61 -13 -11 -21 -20 -17 -20 16 0 -20 -32 -57 -51 -51 -26 -48
-15 5 19 23 15 43 33 44 40 2 6 19 32 38 58 19 25 35 50 35 56 0 6 2 9 5 6 3
-3 -2 -24 -11 -47z m-736 -1 c33 -22 65 -40 71 -40 6 0 11 -4 11 -8 0 -9 -53
-42 -68 -42 -6 0 -32 25 -58 56 -38 45 -45 57 -33 65 8 5 15 9 15 9 1 0 29
-18 62 -40z m-60 -36 c23 -30 36 -54 29 -54 -17 0 -109 94 -101 103 15 14 30
4 72 -49z m302 -40 c22 -15 40 -28 40 -30 0 -4 -134 42 -158 55 -18 9 -19 14
-9 40 l11 30 37 -34 c21 -19 56 -46 79 -61z m-395 66 c4 -11 10 -18 14 -16 4
3 21 -9 37 -26 26 -27 26 -29 6 -19 -13 7 -26 19 -29 27 -3 7 -9 11 -15 8 -12
-7 -49 26 -42 37 9 15 22 10 29 -11z m600 -22 c-14 -65 -33 -88 -69 -88 -68 0
-69 9 -7 55 32 24 62 48 65 54 13 21 18 11 11 -21z m-270 -57 l86 -29 -41 -16
c-75 -30 -111 -30 -153 -2 -51 35 -60 32 -17 -4 22 -19 28 -28 15 -24 -11 4
-25 11 -32 16 -7 6 -17 7 -22 3 -12 -7 -43 8 -81 38 l-25 19 25 -7 c14 -4 34
-16 46 -26 28 -26 42 -24 18 2 -19 21 -19 22 2 15 14 -4 32 2 55 18 19 13 35
25 36 25 1 1 41 -12 88 -28z m178 -50 c34 -13 28 -25 -23 -51 -48 -24 -70 -25
-141 -4 l-54 17 60 19 c33 11 65 24 70 29 11 11 42 7 88 -10z m208 -1 c-25
-21 -52 -24 -116 -13 -39 7 -38 8 35 19 107 16 108 16 81 -6z m-62 -36 c4 -4
-94 -31 -144 -39 -44 -7 -44 -6 5 29 30 21 43 23 85 19 28 -3 52 -7 54 -9z"/>
<path d="M762 2097 c-12 -13 -22 -26 -22 -29 0 -3 30 -32 66 -63 l66 -58 25
27 25 27 -63 57 c-34 31 -65 58 -69 60 -3 1 -16 -8 -28 -21z"/>
<path d="M647 1938 c-38 -64 -51 -95 -44 -100 22 -14 37 -8 49 17 14 32 17 31
76 -5 27 -16 52 -30 55 -30 7 0 40 61 35 64 -2 2 -27 16 -55 32 -57 31 -61 38
-38 68 11 14 12 23 4 33 -6 7 -15 13 -19 13 -4 0 -32 -42 -63 -92z"/>
<path d="M2243 1934 l-73 -45 15 -30 c9 -16 19 -29 22 -29 5 0 137 74 151 85
4 3 -32 65 -38 64 -3 0 -38 -21 -77 -45z"/>
<path d="M2302 1833 l-73 -25 7 -32 c3 -17 8 -33 10 -35 1 -1 26 5 54 14 28 9
53 15 56 12 3 -2 -14 -31 -36 -64 -41 -59 -41 -61 -29 -101 7 -23 17 -42 23
-42 21 0 161 48 158 54 -1 3 -5 19 -8 36 -4 16 -7 30 -9 30 -1 0 -27 -9 -58
-19 -32 -11 -57 -18 -57 -15 0 3 18 32 40 64 22 32 40 63 40 67 0 26 -23 83
-33 82 -7 0 -45 -12 -85 -26z"/>
<path d="M587 1770 c-28 -22 -47 -74 -47 -127 0 -64 77 -90 96 -31 19 61 36
91 44 78 5 -8 1 -28 -10 -49 -28 -55 -34 -81 -18 -81 62 1 106 152 58 200 -11
11 -24 20 -29 20 -16 0 -50 -51 -63 -91 -6 -22 -15 -39 -20 -39 -14 0 -9 34
12 75 33 65 24 82 -23 45z"/>
</g>
</svg>
